<?xml version="1.0" encoding="iso-8859-1"?>
<!-- Generator: Adobe Illustrator 19.0.0, SVG Export Plug-In . SVG Version: 6.00 Build 0)  -->
<svg version="1.1" id="Capa_1" xmlns="http://www.w3.org/2000/svg" xmlns:xlink="http://www.w3.org/1999/xlink" x="0px" y="0px"
	 viewBox="0 0 511.999 511.999" style="enable-background:new 0 0 511.999 511.999;" xml:space="preserve">
<path style="fill:#D83D59;" d="M390.294,424.181c25.001,0,45.269-28.551,45.269-63.771s-20.268-63.771-45.269-63.771l-48.952-16.805
	l-48.952,16.805c-25.001,0-45.269,28.551-45.269,63.771s20.268,63.771,45.269,63.771l48.952,16.805L390.294,424.181z"/>
<path style="fill:#BC3245;" d="M320.205,424.181c-25.001,0-45.269-28.551-45.269-63.771s20.268-63.771,45.269-63.771l35.045-12.03
	l-13.907-4.775l-48.952,16.805c-25.001,0-45.269,28.551-45.269,63.771s20.268,63.771,45.269,63.771l48.952,16.805l13.907-4.775
	L320.205,424.181z"/>
<path style="fill:#272933;" d="M341.342,277.383c-4.267,0-7.726-3.459-7.726-7.726v-64.083c0-4.267,3.459-7.726,7.726-7.726
	c4.267,0,7.726,3.459,7.726,7.726v64.083C349.069,273.923,345.609,277.383,341.342,277.383z"/>
<polygon style="fill:#593F51;" points="152.948,229.513 233.133,111.683 397.156,81.102 397.156,99.636 262.841,141.61 
	229.342,198.244 191.431,245.623 "/>
<path style="fill:#543A50;" d="M255.368,154.243c-0.552,0.195-1.1,0.404-1.644,0.627l-69.277,28.356l-31.499,46.287l38.483,16.11
	l37.911-47.379L255.368,154.243z"/>
<path style="fill:#6E5166;" d="M0,436.95l74.97-41.763c1.004-0.559,1.784-1.448,2.207-2.518l35.505-89.649
	c0.573-1.445,1.786-2.54,3.282-2.961l85.89-24.157c0.463-0.13,0.903-0.327,1.309-0.582l76.012-47.96
	c0.795-0.502,1.717-0.769,2.658-0.769l102.119-6.106c0.76,0,1.511-0.174,2.194-0.51l88.051-28.116
	c5.121-2.514,2.683-10.266-2.956-9.394l-75.401,8.828c-0.358,0.056-0.721,0.071-1.083,0.048l-127.119-8.231
	c-0.754-0.048-1.509,0.074-2.209,0.361l-150.934,61.78c-0.599,0.245-1.239,0.371-1.887,0.371H36.988c-0.814,0-1.615,0.2-2.334,0.581
	L0,264.586V436.95z"/>
<path style="fill:#5C4258;" d="M471.243,182.467l-32.353,3.788l-73.346,23.42c-0.683,0.335-1.434,0.509-2.194,0.509l-102.119,6.106
	c-0.941,0-1.863,0.267-2.658,0.769l-76.012,47.96c-0.406,0.257-0.847,0.452-1.309,0.582l-85.89,24.157
	c-1.496,0.421-2.71,1.516-3.282,2.961l-35.505,89.649c-0.423,1.068-1.203,1.958-2.207,2.518L0,415.17v21.779l74.97-41.763
	c1.004-0.559,1.784-1.448,2.207-2.518l35.505-89.649c0.572-1.445,1.786-2.54,3.282-2.961l85.89-24.157
	c0.463-0.13,0.903-0.327,1.309-0.582l76.012-47.96c0.795-0.502,1.717-0.769,2.658-0.769l102.119-6.106
	c0.761,0,1.511-0.174,2.194-0.509l88.051-28.116C479.32,189.348,476.88,181.595,471.243,182.467z"/>
<g>
	<path style="fill:#E380A1;" d="M222.54,304.702c-6.245,0-12.212-2.446-16.799-6.887c-0.62-0.601-1.208-1.233-1.761-1.892
		c-0.552,0.659-1.14,1.292-1.761,1.892c-4.588,4.441-10.554,6.887-16.799,6.887c-2.818,0-5.557-0.504-8.139-1.496l-2.039-0.783
		l-0.716-2.062c-2.646-7.619-0.983-16.188,4.204-22.572c-6.608-4.897-10.344-12.788-9.67-20.824l0.182-2.176l1.78-1.264
		c3.87-2.749,8.496-4.202,13.376-4.202c1.752,0,3.51,0.197,5.231,0.579c0.682-2.207,1.674-4.305,2.954-6.228
		c2.374-3.566,5.63-6.382,9.417-8.14l1.98-0.92l1.98,0.92c3.788,1.76,7.044,4.575,9.417,8.14c1.279,1.922,2.272,4.022,2.954,6.227
		c1.721-0.382,3.48-0.579,5.231-0.579c4.88,0,9.504,1.453,13.376,4.202l1.78,1.264l0.182,2.176
		c0.674,8.037-3.063,15.927-9.671,20.824c5.187,6.384,6.85,14.953,4.204,22.572l-0.716,2.062l-2.039,0.783
		C228.097,304.198,225.357,304.702,222.54,304.702z"/>
	<path style="fill:#E380A1;" d="M97.69,424.181c-6.245,0-12.212-2.446-16.799-6.887c-0.62-0.601-1.208-1.233-1.761-1.892
		c-0.552,0.659-1.14,1.292-1.761,1.892c-4.588,4.441-10.554,6.887-16.799,6.887c-2.818,0-5.557-0.504-8.139-1.496l-2.039-0.783
		l-0.716-2.062c-2.646-7.619-0.983-16.188,4.204-22.572c-6.608-4.897-10.344-12.788-9.67-20.824l0.182-2.176l1.78-1.264
		c3.87-2.749,8.496-4.202,13.376-4.202c1.752,0,3.51,0.197,5.231,0.579c0.682-2.207,1.674-4.305,2.954-6.228
		c2.374-3.566,5.63-6.382,9.417-8.141l1.98-0.92l1.98,0.92c3.788,1.76,7.044,4.575,9.417,8.141c1.279,1.922,2.272,4.022,2.954,6.227
		c1.721-0.382,3.48-0.579,5.231-0.579c4.88,0,9.504,1.453,13.376,4.202l1.78,1.264l0.182,2.176
		c0.674,8.037-3.063,15.927-9.671,20.824c5.187,6.384,6.85,14.953,4.204,22.572l-0.716,2.062l-2.038,0.783
		C103.247,423.678,100.508,424.181,97.69,424.181z"/>
	<path style="fill:#E380A1;" d="M415.716,124.293c-6.245,0-12.212-2.446-16.799-6.887c-0.62-0.601-1.208-1.233-1.761-1.892
		c-0.552,0.659-1.14,1.292-1.761,1.892c-4.588,4.441-10.554,6.887-16.799,6.887c-2.818,0-5.557-0.504-8.139-1.496l-2.039-0.783
		l-0.716-2.062c-2.646-7.619-0.983-16.188,4.204-22.572c-6.608-4.897-10.344-12.788-9.67-20.824l0.182-2.176l1.78-1.264
		c3.871-2.749,8.496-4.202,13.376-4.202c1.752,0,3.51,0.197,5.231,0.579c0.682-2.207,1.674-4.305,2.954-6.228
		c2.374-3.566,5.63-6.382,9.417-8.14l1.98-0.92l1.98,0.92c3.788,1.76,7.044,4.575,9.417,8.14c1.279,1.922,2.272,4.022,2.954,6.227
		c1.721-0.382,3.48-0.579,5.231-0.579c4.88,0,9.504,1.453,13.376,4.202l1.78,1.264l0.182,2.176
		c0.674,8.037-3.063,15.927-9.671,20.824c5.187,6.384,6.85,14.953,4.204,22.572l-0.716,2.062l-2.038,0.783
		C421.273,123.79,418.535,124.293,415.716,124.293z"/>
</g>
<g>
	<path style="fill:#FFA7C4;" d="M495.56,217.445c-6.245,0-12.212-2.446-16.799-6.887c-0.62-0.601-1.208-1.233-1.761-1.892
		c-0.552,0.659-1.14,1.292-1.761,1.892c-4.588,4.441-10.554,6.887-16.799,6.887c-2.818,0-5.557-0.504-8.139-1.496l-2.039-0.783
		l-0.716-2.062c-2.645-7.619-0.983-16.188,4.204-22.572c-6.608-4.897-10.344-12.788-9.67-20.824l0.182-2.176l1.78-1.264
		c3.871-2.749,8.496-4.202,13.376-4.202c1.752,0,3.51,0.197,5.231,0.579c0.682-2.207,1.674-4.305,2.954-6.228
		c2.374-3.566,5.63-6.382,9.417-8.14l1.98-0.92l1.98,0.92c3.788,1.76,7.044,4.575,9.417,8.14c1.279,1.922,2.272,4.022,2.954,6.227
		c1.721-0.382,3.48-0.579,5.231-0.579c4.88,0,9.504,1.453,13.376,4.202l1.78,1.264l0.182,2.176
		c0.674,8.037-3.063,15.927-9.671,20.824c5.187,6.384,6.85,14.953,4.204,22.572l-0.716,2.062l-2.039,0.783
		C501.117,216.941,498.379,217.445,495.56,217.445z"/>
	<path style="fill:#FFA7C4;" d="M79.373,269.656c-6.245,0-12.212-2.446-16.799-6.887c-0.62-0.601-1.208-1.233-1.761-1.892
		c-0.552,0.659-1.14,1.292-1.761,1.892c-4.588,4.441-10.554,6.887-16.799,6.887c-2.818,0-5.557-0.504-8.139-1.496l-2.039-0.783
		l-0.716-2.062c-2.646-7.619-0.983-16.188,4.204-22.572c-6.608-4.897-10.344-12.788-9.67-20.824l0.182-2.176l1.78-1.264
		c3.87-2.749,8.496-4.202,13.376-4.202c1.752,0,3.51,0.197,5.231,0.579c0.682-2.207,1.674-4.305,2.954-6.228
		c2.374-3.566,5.63-6.382,9.417-8.14l1.98-0.92l1.98,0.92c3.788,1.76,7.044,4.575,9.417,8.14c1.279,1.922,2.272,4.022,2.954,6.227
		c1.721-0.382,3.48-0.579,5.231-0.579c4.88,0,9.504,1.453,13.376,4.202l1.78,1.264l0.182,2.176
		c0.674,8.037-3.063,15.927-9.671,20.824c5.187,6.384,6.85,14.953,4.204,22.572l-0.716,2.062l-2.038,0.783
		C84.93,269.154,82.191,269.656,79.373,269.656z"/>
</g>
<rect x="292.829" y="263.023" style="fill:#F0C146;" width="97.022" height="33.611"/>
<rect x="292.829" y="263.023" style="fill:#D4AA3D;" width="26.785" height="33.611"/>
<rect x="292.829" y="424.185" style="fill:#F0C146;" width="97.022" height="33.611"/>
<rect x="292.829" y="424.185" style="fill:#D4AA3D;" width="26.785" height="33.611"/>
<g>
</g>
<g>
</g>
<g>
</g>
<g>
</g>
<g>
</g>
<g>
</g>
<g>
</g>
<g>
</g>
<g>
</g>
<g>
</g>
<g>
</g>
<g>
</g>
<g>
</g>
<g>
</g>
<g>
</g>
</svg>
